 <svg version="1.0" xmlns="http://www.w3.org/2000/svg" width="400.000000pt" height="376.000000pt" viewBox="0 0 700.000000 376.000000" preserveAspectRatio="xMidYMid meet">
<metadata>
Created by potrace 1.12, written by Peter Selinger 2001-2015
</metadata>
<g transform="translate(0.000000,376.000000) scale(0.100000,-0.100000)" fill="#000000" stroke="none">
<path d="M3265 3704 c-374 -38 -575 -78 -860 -171 -949 -309 -1742 -1056
-2115 -1993 -163 -410 -257 -918 -248 -1338 l3 -143 464 1 c256 0 466 2 468 4
2 2 1 9 -2 17 -4 11 -25 13 -88 12 -45 -2 -151 -4 -234 -5 l-153 -3 0 190 c0
719 251 1393 722 1940 616 714 1520 1096 2456 1037 440 -27 801 -125 1183
-318 695 -352 1229 -966 1479 -1699 105 -310 150 -570 157 -915 l5 -235 -218
3 c-121 2 -225 5 -231 7 -10 3 -13 48 -13 180 0 112 -4 175 -10 175 -7 0 -9
-67 -8 -195 l3 -195 464 -1 463 0 -1 208 c-2 242 -13 383 -47 581 -64 384
-213 802 -399 1119 -314 534 -717 944 -1237 1257 -118 70 -357 193 -438 224
-19 8 -44 18 -55 22 -189 83 -583 181 -865 215 -128 16 -552 28 -645 19z m470
-44 c284 -21 502 -60 753 -135 1168 -348 2083 -1330 2341 -2511 58 -269 74
-406 75 -669 l1 -240 -185 0 -185 0 -7 220 c-12 418 -92 791 -243 1136 -358
819 -1059 1443 -1908 1699 -436 132 -916 163 -1369 89 -1189 -193 -2156 -1082
-2452 -2254 -55 -220 -77 -390 -85 -665 l-6 -225 -182 -3 c-177 -2 -182 -2
-193 19 -17 30 4 442 31 624 75 515 252 981 532 1400 687 1028 1858 1604 3082
1515z"></path>
<path d="M3255 2790 c-550 -62 -1034 -273 -1441 -630 -344 -301 -630 -751
-753 -1183 -43 -153 -50 -181 -71 -310 -21 -127 -25 -177 -12 -177 4 0 13 45
20 101 60 507 316 1034 687 1418 399 413 904 668 1490 753 137 20 531 17 680
-6 548 -81 1027 -321 1421 -711 149 -148 224 -239 337 -410 209 -318 362 -742
393 -1087 4 -43 11 -78 15 -78 13 0 11 38 -7 159 -65 441 -255 874 -541 1231
-91 113 -256 278 -373 371 -363 290 -759 465 -1220 540 -143 23 -493 34 -625
19z"></path>
<path d="M3345 1843 c-83 -7 -260 -45 -348 -74 -238 -78 -425 -196 -618 -389
-227 -226 -358 -457 -430 -755 -21 -88 -23 -115 -11 -115 5 0 14 30 21 67 54
292 235 616 464 829 295 275 675 424 1085 424 61 0 102 4 102 10 0 10 -171 11
-265 3z"></path>
<path d="M3630 1831 c0 -6 15 -11 34 -11 118 0 378 -75 538 -155 431 -216 733
-607 838 -1083 11 -48 20 -102 20 -119 0 -18 5 -33 10 -33 31 0 -21 236 -91
415 -193 488 -638 865 -1145 970 -110 22 -204 30 -204 16z"></path>
<path d="M3380 1340 c-247 -29 -465 -134 -641 -309 -134 -134 -216 -262 -269
-419 -38 -115 -51 -197 -59 -376 l-6 -148 -230 1 c-189 1 -232 4 -241 16 -15
20 -21 19 -27 -5 -5 -19 -15 -20 -447 -20 -244 0 -445 -2 -448 -5 -3 -3 -3 -7
0 -10 2 -3 424 -5 938 -5 l933 -1 -2 118 c-4 224 52 377 188 513 81 80 152
123 264 160 59 19 84 22 185 18 103 -4 127 -8 200 -37 141 -56 263 -167 332
-301 45 -90 53 -127 59 -303 l6 -168 934 1 c514 0 937 2 939 5 3 3 3 7 0 10
-3 3 -204 5 -447 5 -436 0 -443 1 -448 21 -5 18 -7 18 -22 5 -13 -12 -58 -15
-246 -17 l-230 -1 -6 153 c-3 85 -12 181 -18 214 -77 383 -339 692 -698 824
-145 53 -344 78 -493 61z m280 -35 c230 -37 425 -137 587 -300 142 -144 232
-304 285 -505 22 -87 39 -390 21 -390 -16 0 -73 68 -75 88 -1 9 -2 53 -2 97
-1 68 -6 91 -33 152 -18 39 -33 82 -33 94 0 22 -33 91 -133 284 -47 90 -58 99
-257 211 -33 19 -71 52 -95 84 -68 87 -78 90 -305 89 -107 -1 -218 2 -246 6
-45 7 -53 5 -72 -16 -31 -33 -40 -90 -17 -104 45 -25 85 -68 85 -90 0 -29 -20
-49 -74 -77 -22 -11 -55 -32 -73 -45 -55 -42 -145 -43 -158 -2 -7 22 29 154
45 164 16 10 12 61 -6 75 -27 23 -70 15 -116 -21 -24 -20 -82 -61 -130 -92
-83 -54 -89 -60 -126 -134 -22 -43 -43 -98 -47 -123 -10 -58 -25 -87 -69 -129
-39 -38 -49 -62 -67 -168 -9 -56 -9 -88 0 -147 15 -92 6 -127 -44 -176 -56
-54 -65 -41 -65 97 1 307 92 546 288 755 240 256 591 377 932 323z m210 -370
c29 -15 46 -47 35 -65 -9 -14 -40 -12 -80 4 -27 11 -35 21 -35 40 0 37 32 46
80 21z m-960 -266 c0 -24 -17 -59 -29 -59 -13 0 -19 46 -9 64 13 23 38 20 38
-5z"></path>
<path d="M1920 470 c0 -11 5 -20 10 -20 6 0 10 9 10 20 0 11 -4 20 -10 20 -5
0 -10 -9 -10 -20z"></path>
<path d="M960 390 c0 -47 4 -80 10 -80 6 0 10 33 10 80 0 47 -4 80 -10 80 -6
0 -10 -33 -10 -80z"></path>
<path d="M1910 385 c0 -19 5 -35 10 -35 6 0 10 16 10 35 0 19 -4 35 -10 35 -5
0 -10 -16 -10 -35z"></path>
<path d="M5070 345 c0 -30 5 -55 10 -55 6 0 10 25 10 55 0 30 -4 55 -10 55 -5
0 -10 -25 -10 -55z"></path>
</g>
</svg>